# xmcd
#
# Track frame offsets:
#   150
#   18653
#   32307
#   49106
#   64809
#   81480
#   98855
#   117446
#   132850
#   146142
#   162984
#   180441
#   196756
#
# Disc length: 2832 seconds
#
# Revision: 0
# Processed by: cddbd v1.5.2PL0 Copyright (c) Steve Scherf et al.
# Submitted via: uFREEDB ActiveX Control 1.5
#
DISCID=b00b0e0d
DTITLE=OS TRAVESSOS - FRENTE A FRENTE
DYEAR=2007
DGENRE=Pop
TTITLE0=01 - FRENTE A FRENTE
TTITLE1=02 - VOU TE LEVAR
TTITLE2=03 - A MELHOR PARTE
TTITLE3=04 - TRANSPARENTE
TTITLE4=05 - REDE
TTITLE5=06 - QUER SABER
TTITLE6=07 -  É SAUDADE
TTITLE7=08 - TARDE DE VERÃO
TTITLE8=09 - SE FICARMOS ASSIM
TTITLE9=10 - SEM PALAVRAS
TTITLE10=11 - NEM PENSAR
TTITLE11=12 - TE LIGUEI
TTITLE12=13 - TRAVESSOS
EXTD=
EXTT0=
EXTT1=
EXTT2=
EXTT3=
EXTT4=
EXTT5=
EXTT6=
EXTT7=
EXTT8=
EXTT9=
EXTT10=
EXTT11=
EXTT12=
PLAYORDER=
